<svg width="888" height="889" viewBox="0 0 888 889" fill="none" xmlns="http://www.w3.org/2000/svg">
<mask id="path-1-inside-1_2017_78" fill="white">
<path d="M722.501 322.812C738.469 322.812 754.281 325.957 769.034 332.068C783.787 338.179 797.191 347.135 808.483 358.427C819.774 369.718 828.731 383.123 834.842 397.876C840.953 412.629 844.098 428.441 844.098 444.409C844.098 460.377 840.953 476.189 834.842 490.942C828.731 505.695 819.774 519.1 808.483 530.391C797.191 541.683 783.787 550.639 769.034 556.75C754.281 562.861 738.469 566.006 722.5 566.006L722.501 444.409L722.501 322.812Z"/>
</mask>
<path d="M722.501 322.812C738.469 322.812 754.281 325.957 769.034 332.068C783.787 338.179 797.191 347.135 808.483 358.427C819.774 369.718 828.731 383.123 834.842 397.876C840.953 412.629 844.098 428.441 844.098 444.409C844.098 460.377 840.953 476.189 834.842 490.942C828.731 505.695 819.774 519.1 808.483 530.391C797.191 541.683 783.787 550.639 769.034 556.75C754.281 562.861 738.469 566.006 722.5 566.006L722.501 444.409L722.501 322.812Z" stroke="#8B5CF6" stroke-width="12.1597" mask="url(#path-1-inside-1_2017_78)"/>
<path d="M693.317 110.017C693.317 88.4095 701.901 67.6872 717.179 52.4086C732.458 37.13 753.18 28.5466 774.788 28.5466L774.788 110.017L693.317 110.017Z" fill="#F5F3FF"/>
<path d="M774.787 10.3069C788.041 10.3069 801.165 12.9174 813.41 17.9894C825.655 23.0614 836.781 30.4955 846.152 39.8674C855.524 49.2392 862.958 60.3651 868.03 72.61C873.102 84.8549 875.713 97.9789 875.713 111.233C875.713 124.486 873.102 137.61 868.03 149.855C862.958 162.1 855.524 173.226 846.152 182.598C836.781 191.97 825.655 199.404 813.41 204.476C801.165 209.548 788.041 212.158 774.787 212.158" stroke="#DDD6FE" stroke-width="6.07986"/>
<path d="M887.873 444.409C887.873 562.12 841.112 675.01 757.878 758.244C674.644 841.478 561.754 888.239 444.043 888.239L444.043 444.409H887.873Z" fill="#7D80D1"/>
<mask id="path-5-inside-2_2017_78" fill="white">
<path d="M722.5 302.14C741.343 302.14 760.001 305.852 777.41 313.062C794.818 320.273 810.636 330.842 823.959 344.166C837.283 357.49 847.852 373.307 855.063 390.716C862.274 408.124 865.985 426.782 865.985 445.625C865.985 464.468 862.274 483.126 855.063 500.534C847.852 517.943 837.283 533.76 823.959 547.084C810.636 560.408 794.818 570.977 777.409 578.188C760.001 585.398 741.343 589.11 722.5 589.11L722.5 445.625L722.5 302.14Z"/>
</mask>
<path d="M722.5 302.14C741.343 302.14 760.001 305.852 777.41 313.062C794.818 320.273 810.636 330.842 823.959 344.166C837.283 357.49 847.852 373.307 855.063 390.716C862.274 408.124 865.985 426.782 865.985 445.625C865.985 464.468 862.274 483.126 855.063 500.534C847.852 517.943 837.283 533.76 823.959 547.084C810.636 560.408 794.818 570.977 777.409 578.188C760.001 585.398 741.343 589.11 722.5 589.11L722.5 445.625L722.5 302.14Z" stroke="white" stroke-width="7.29583" mask="url(#path-5-inside-2_2017_78)"/>
<path d="M722.501 344.699C735.755 344.699 748.879 347.31 761.123 352.382C773.368 357.454 784.494 364.888 793.866 374.26C803.238 383.632 810.672 394.758 815.744 407.002C820.816 419.247 823.427 432.371 823.427 445.625C823.427 458.879 820.816 472.003 815.744 484.248C810.672 496.492 803.238 507.618 793.866 516.99C784.494 526.362 773.368 533.796 761.123 538.868C748.879 543.94 735.755 546.551 722.501 546.551L722.501 445.625L722.501 344.699Z" fill="#35006E"/>
</svg>
