<svg width="522" height="889" viewBox="0 0 522 889" fill="none" xmlns="http://www.w3.org/2000/svg">
<path d="M1.21561 0.789551C59.5002 0.789551 117.214 12.2696 171.062 34.5741C224.91 56.8786 273.837 89.5709 315.051 130.784C356.264 171.998 388.956 220.925 411.261 274.773C433.565 328.621 445.045 386.335 445.045 444.619L1.21561 444.619L1.21561 0.789551Z" fill="#CCE1FF"/>
<path d="M34.0469 501.77C34.0469 455.653 52.3668 411.425 84.9763 378.816C117.586 346.206 161.814 327.886 207.931 327.886L207.931 501.77L34.0469 501.77Z" fill="white"/>
<mask id="path-3-inside-1_2017_73" fill="white">
<path d="M227.387 692.678C204.552 692.678 181.941 688.18 160.844 679.442C139.748 670.703 120.579 657.895 104.432 641.748C88.2857 625.602 75.4775 606.433 66.739 585.336C58.0006 564.24 53.5029 541.628 53.5029 518.794C53.5029 495.959 58.0006 473.348 66.7391 452.251C75.4776 431.155 88.2858 411.986 104.432 395.839C120.579 379.693 139.748 366.884 160.844 358.146C181.941 349.407 204.552 344.91 227.387 344.91L227.387 518.794L227.387 692.678Z"/>
</mask>
<path d="M227.387 692.678C204.552 692.678 181.941 688.18 160.844 679.442C139.748 670.703 120.579 657.895 104.432 641.748C88.2857 625.602 75.4775 606.433 66.739 585.336C58.0006 564.24 53.5029 541.628 53.5029 518.794C53.5029 495.959 58.0006 473.348 66.7391 452.251C75.4776 431.155 88.2858 411.986 104.432 395.839C120.579 379.693 139.748 366.884 160.844 358.146C181.941 349.407 204.552 344.91 227.387 344.91L227.387 518.794L227.387 692.678Z" stroke="#CCE1FF" stroke-width="12.1597" mask="url(#path-3-inside-1_2017_73)"/>
<mask id="path-4-inside-2_2017_73" fill="white">
<path d="M227.386 813.059C169.186 813.059 112.293 795.801 63.9013 763.466C15.5096 731.132 -22.2071 685.174 -44.4793 631.404C-66.7515 577.634 -72.579 518.467 -61.2247 461.385C-49.8704 404.303 -21.8443 351.87 19.3094 310.717C60.4632 269.563 112.896 241.537 169.978 230.183C227.06 218.828 286.227 224.656 339.997 246.928C393.767 269.2 439.725 306.917 472.059 355.309C504.393 403.7 521.652 460.594 521.652 518.794L227.386 518.794L227.386 813.059Z"/>
</mask>
<path d="M227.386 813.059C169.186 813.059 112.293 795.801 63.9013 763.466C15.5096 731.132 -22.2071 685.174 -44.4793 631.404C-66.7515 577.634 -72.579 518.467 -61.2247 461.385C-49.8704 404.303 -21.8443 351.87 19.3094 310.717C60.4632 269.563 112.896 241.537 169.978 230.183C227.06 218.828 286.227 224.656 339.997 246.928C393.767 269.2 439.725 306.917 472.059 355.309C504.393 403.7 521.652 460.594 521.652 518.794L227.386 518.794L227.386 813.059Z" stroke="#CCE1FF" stroke-width="7.29583" mask="url(#path-4-inside-2_2017_73)"/>
</svg>
